<svg  width="516" height="200" viewBox="0 0 516 200" fill="none" xmlns="http://www.w3.org/2000/svg">
    <path
        d="M26.414 139.469C29.414 134.594 32.8828 130.234 36.8203 126.391C40.7578 122.641 44.789 119.078 48.914 115.703C53.1328 112.328 57.3047 109.047 61.4297 105.859C65.5547 102.672 69.3515 99.25 72.8203 95.5938C76.3828 91.9375 79.4297 87.9062 81.9609 83.5C84.4922 79 86.2265 73.7969 87.164 67.8906C87.164 67.7031 87.1172 67.4219 87.0234 67.0469C87.0234 66.5781 87.0234 66.25 87.0234 66.0625C84.8672 68.5938 82.2422 71.4531 79.1484 74.6406C76.1484 77.8281 72.8672 80.8281 69.3047 83.6406C65.8359 86.4531 62.1797 88.7969 58.3359 90.6719C54.4922 92.5469 50.7422 93.4844 47.0859 93.4844C46.1484 93.4844 44.9297 93.4375 43.4297 93.3438C42.0234 93.1562 40.6172 92.8281 39.2109 92.3594C37.8047 91.8906 36.5859 91.2344 35.5547 90.3906C34.5234 89.5469 34.0078 88.4219 34.0078 87.0156C34.0078 85.7969 34.3359 83.9219 34.9922 81.3906C35.6484 78.8594 36.539 76.0469 37.664 72.9531C38.789 69.8594 40.0547 66.7188 41.4609 63.5312C42.8672 60.3438 44.3672 57.4375 45.9609 54.8125C47.5547 52.1875 49.1015 50.0312 50.6015 48.3438C52.1953 46.6562 53.6484 45.8125 54.9609 45.8125C56.2734 45.8125 57.3984 46.0938 58.3359 46.6562C59.2734 47.2188 59.7422 48.1562 59.7422 49.4688C59.7422 51.8125 58.8984 54.1562 57.2109 56.5C55.5234 58.8438 53.6953 61.375 51.7265 64.0938C49.7578 66.7188 47.9297 69.5781 46.2422 72.6719C44.5547 75.7656 43.7109 79.2812 43.7109 83.2188C49.8984 83.2188 55.4765 81.9531 60.4453 79.4219C65.414 76.7969 69.914 73.5625 73.9453 69.7188C77.9765 65.875 81.539 61.7031 84.6328 57.2031C87.7265 52.7031 90.4453 48.5312 92.789 44.6875C95.2265 40.8438 97.289 37.6562 98.9765 35.125C100.758 32.5 102.258 31.1875 103.477 31.1875C105.258 31.1875 106.289 31.75 106.57 32.875C106.945 33.9062 107.133 35.2188 107.133 36.8125C106.289 39.7188 105.117 43.1406 103.617 47.0781C102.117 50.9219 100.57 55 98.9765 59.3125C97.4765 63.5312 96.0703 67.75 94.7578 71.9688C93.539 76.1875 92.7422 80.0312 92.3672 83.5C92.3672 83.5938 92.3672 83.7344 92.3672 83.9219C92.4609 84.1094 92.5078 84.25 92.5078 84.3438C94.1953 83.7812 95.789 82.7969 97.289 81.3906C98.789 79.9844 100.242 78.5781 101.648 77.1719C103.148 75.6719 104.648 74.3594 106.148 73.2344C107.648 72.0156 109.195 71.4062 110.789 71.4062C110.883 71.4062 111.211 72.0625 111.773 73.375C112.43 74.6875 112.43 76.2812 111.773 78.1562C110.93 78.8125 109.383 79.9375 107.133 81.5312C104.977 83.125 102.68 84.8125 100.242 86.5938C97.8047 88.2812 95.5078 89.9688 93.3515 91.6562C91.1953 93.25 89.6953 94.4688 88.8515 95.3125C87.539 96.625 86.1797 98.5 84.7734 100.938C83.3672 103.375 81.9609 106.094 80.5547 109.094C79.1484 112.188 77.7422 115.422 76.3359 118.797C75.0234 122.172 73.7109 125.453 72.3984 128.641C71.0859 131.922 69.7734 134.922 68.4609 137.641C67.2422 140.453 66.1172 142.75 65.0859 144.531C64.6172 145.281 63.6328 146.734 62.1328 148.891C60.7265 151.141 59.1328 153.531 57.3515 156.062C55.664 158.594 53.9765 160.984 52.289 163.234C50.6953 165.578 49.4765 167.219 48.6328 168.156C48.2578 168.625 47.2265 169.703 45.539 171.391C43.8515 173.172 41.9297 175.094 39.7734 177.156C37.7109 179.312 35.6484 181.422 33.5859 183.484C31.4297 185.547 29.789 187.094 28.664 188.125C27.539 188.781 26.039 189.578 24.164 190.516C22.289 191.547 20.3672 192.391 18.3984 193.047C16.3359 193.703 14.3672 194.125 12.4922 194.312C10.5234 194.5 8.92967 194.078 7.71092 193.047C6.49217 192.109 5.78905 190.469 5.60155 188.125C5.3203 185.875 5.83592 182.641 7.14842 178.422C8.36717 174.297 10.5234 169.047 13.6172 162.672C16.7109 156.297 20.9765 148.562 26.414 139.469ZM70.5703 109.234C70.3828 109.234 70.0547 109.281 69.5859 109.375C69.2109 109.562 68.9297 109.703 68.7422 109.797C68.5547 109.984 68.1328 110.312 67.4765 110.781C66.8203 111.25 66.0703 111.766 65.2265 112.328C64.4765 112.891 63.7265 113.453 62.9765 114.016C62.3203 114.578 61.8515 115 61.5703 115.281C58.9453 117.156 55.9453 119.781 52.5703 123.156C49.1953 126.625 45.6797 130.422 42.0234 134.547C38.4609 138.766 34.9453 143.172 31.4765 147.766C28.0078 152.453 24.914 156.906 22.1953 161.125C19.3828 165.438 17.1328 169.375 15.4453 172.938C13.7578 176.5 12.8672 179.359 12.7734 181.516C12.6797 183.672 13.5703 184.938 15.4453 185.312C17.3203 185.688 20.5078 184.797 25.0078 182.641C25.9453 181.797 27.3047 180.531 29.0859 178.844C30.7734 177.25 32.4609 175.562 34.1484 173.781C35.9297 172.094 37.5234 170.5 38.9297 169C40.3359 167.594 41.1797 166.703 41.4609 166.328C41.9297 165.672 42.6797 164.641 43.7109 163.234C44.7422 161.828 45.8672 160.234 47.0859 158.453C48.3047 156.672 49.5703 154.797 50.8828 152.828C52.1953 150.859 53.414 148.938 54.539 147.062C55.7578 145.281 56.789 143.688 57.6328 142.281C58.5703 140.875 59.2265 139.797 59.6015 139.047C60.4453 137.547 61.4765 135.391 62.6953 132.578C64.0078 129.859 65.2265 127 66.3515 124C67.4765 121.094 68.4609 118.281 69.3047 115.562C70.1484 112.844 70.5703 110.734 70.5703 109.234Z"
        stroke="white" stroke-width="5"/>
    <path
        d="M111.352 89.6875C109.758 86.125 109.055 82.6562 109.242 79.2812C109.43 75.8125 110.18 72.5781 111.492 69.5781C112.898 66.4844 114.68 63.7188 116.836 61.2812C119.086 58.75 121.477 56.5938 124.008 54.8125C126.539 52.9375 129.07 51.5312 131.602 50.5938C134.227 49.6562 136.523 49.2812 138.492 49.4688C140.461 49.5625 142.008 50.2656 143.133 51.5781C144.258 52.8906 144.633 54.9062 144.258 57.625C144.258 61.2812 143.086 64.4688 140.742 67.1875C138.492 69.9062 135.961 72.3438 133.148 74.5C130.43 76.6562 127.898 78.625 125.555 80.4062C123.305 82.0938 122.18 83.6875 122.18 85.1875C122.18 86.0312 122.648 86.6875 123.586 87.1562C124.617 87.625 125.789 88 127.102 88.2812C128.414 88.4688 129.727 88.6094 131.039 88.7031C132.352 88.7969 133.289 88.8906 133.852 88.9844C142.664 87.1094 149.273 85.9844 153.68 85.6094C158.086 85.1406 160.852 85.1875 161.977 85.75C163.102 86.2188 162.867 87.0156 161.273 88.1406C159.773 89.1719 157.43 90.2969 154.242 91.5156C151.055 92.6406 147.352 93.6719 143.133 94.6094C138.914 95.5469 134.742 96.1094 130.617 96.2969C126.492 96.3906 122.648 95.9688 119.086 95.0312C115.617 94.0938 113.039 92.3125 111.352 89.6875ZM135.961 57.625C134.086 57.625 132.305 58.1406 130.617 59.1719C128.93 60.2031 127.383 61.5156 125.977 63.1094C124.664 64.6094 123.539 66.2969 122.602 68.1719C121.664 69.9531 120.961 71.6406 120.492 73.2344C120.68 73.3281 120.82 73.375 120.914 73.375H121.336C122.648 73.375 124.148 72.8125 125.836 71.6875C127.523 70.5625 129.117 69.2031 130.617 67.6094C132.117 65.9219 133.383 64.1875 134.414 62.4062C135.445 60.625 135.961 59.0312 135.961 57.625Z"
        stroke="white" stroke-width="5"/>
    <path
        d="M159.023 81.3906C159.023 79.6094 159.258 78.0625 159.727 76.75C160.289 75.4375 161.648 74.7812 163.805 74.7812C163.992 74.7812 164.414 74.8281 165.07 74.9219C165.82 74.9219 166.336 74.9688 166.617 75.0625C166.523 79.4688 167.227 82.7969 168.727 85.0469C170.227 87.2031 173.039 88.2812 177.164 88.2812C180.539 88.2812 183.867 87.7656 187.148 86.7344C190.43 85.7031 193.383 84.2031 196.008 82.2344C198.727 80.1719 200.883 77.6875 202.477 74.7812C204.164 71.875 205.008 68.5938 205.008 64.9375C205.008 62.6875 204.211 61.0938 202.617 60.1562C201.117 59.2188 199.43 58.4688 197.555 57.9062C195.68 57.3438 193.945 56.7344 192.352 56.0781C190.852 55.3281 190.102 54.0625 190.102 52.2812C190.102 50.125 191.414 48.0625 194.039 46.0938C196.664 44.125 199.758 42.3906 203.32 40.8906C206.883 39.2969 210.398 38.0781 213.867 37.2344C217.43 36.2969 220.148 35.8281 222.023 35.8281C222.023 38.5469 221.414 40.4688 220.195 41.5938C219.07 42.7188 217.664 43.6094 215.977 44.2656C214.289 44.9219 212.555 45.5781 210.773 46.2344C209.086 46.7969 207.68 47.9219 206.555 49.6094C208.055 50.8281 209.273 51.9531 210.211 52.9844C211.242 53.9219 212.039 54.9531 212.602 56.0781C213.164 57.2031 213.539 58.4688 213.727 59.875C213.914 61.1875 214.008 62.7812 214.008 64.6562C214.008 69.5312 212.93 73.9844 210.773 78.0156C208.711 81.9531 205.992 85.375 202.617 88.2812C199.242 91.0938 195.398 93.2969 191.086 94.8906C186.773 96.3906 182.367 97.1406 177.867 97.1406C175.43 97.1406 173.039 96.8594 170.695 96.2969C168.445 95.6406 166.43 94.6562 164.648 93.3438C162.961 92.0312 161.602 90.3906 160.57 88.4219C159.539 86.4531 159.023 84.1094 159.023 81.3906Z"
        stroke="white" stroke-width="5"/>
    <path
        d="M225.398 87.8594C225.398 86.5469 225.539 85.4219 225.82 84.4844C226.102 83.4531 226.617 82.1406 227.367 80.5469C228.023 79.6094 229.195 77.8281 230.883 75.2031C232.664 72.5781 234.492 69.8125 236.367 66.9062C238.336 64 240.164 61.2812 241.852 58.75C243.633 56.125 244.852 54.2969 245.508 53.2656C246.352 52.0469 247.008 51.3906 247.477 51.2969C247.945 51.2031 248.836 51.1562 250.148 51.1562C250.992 51.1562 251.883 51.2031 252.82 51.2969C253.852 51.3906 254.508 52.0469 254.789 53.2656C253.477 56.4531 251.695 59.5 249.445 62.4062C247.289 65.2188 245.133 68.0312 242.977 70.8438C240.914 73.6562 239.086 76.5625 237.492 79.5625C235.898 82.4688 235.102 85.6094 235.102 88.9844C235.477 88.9844 236.039 89.0312 236.789 89.125C237.633 89.2188 238.523 89.3125 239.461 89.4062C240.398 89.5 241.242 89.5938 241.992 89.6875C242.836 89.7812 243.445 89.7812 243.82 89.6875C244.383 89.5938 245.32 89.4062 246.633 89.125C248.039 88.75 249.492 88.375 250.992 88C252.586 87.625 254.086 87.25 255.492 86.875C256.898 86.5 257.883 86.2188 258.445 86.0312C258.445 86.2188 258.445 86.5469 258.445 87.0156C258.539 87.3906 258.586 87.6719 258.586 87.8594C258.586 89.7344 257.695 91.2812 255.914 92.5C254.227 93.7188 252.211 94.7031 249.867 95.4531C247.617 96.1094 245.273 96.5781 242.836 96.8594C240.492 97.0469 238.664 97.1406 237.352 97.1406C235.945 97.1406 234.492 97 232.992 96.7188C231.586 96.3438 230.32 95.7812 229.195 95.0312C228.07 94.2812 227.133 93.3438 226.383 92.2188C225.727 91 225.398 89.5469 225.398 87.8594ZM266.32 5.45312C267.539 5.45312 268.664 5.5 269.695 5.59375C270.727 5.6875 271.617 5.92188 272.367 6.29688C273.117 6.67188 273.727 7.23438 274.195 7.98438C274.664 8.73438 274.898 9.76562 274.898 11.0781C274.898 11.6406 274.898 12.25 274.898 12.9062C274.898 13.5625 274.805 14.2188 274.617 14.875C274.523 15.4375 274.289 15.9531 273.914 16.4219C273.539 16.7969 272.93 16.9844 272.086 16.9844C270.773 16.9844 269.695 16.5156 268.852 15.5781C268.102 14.6406 267.539 13.5625 267.164 12.3438C266.789 11.0312 266.555 9.71875 266.461 8.40625C266.367 7.09375 266.32 6.10938 266.32 5.45312Z"
        stroke="white" stroke-width="5"/>
    <path
        d="M258.867 84.2031C258.867 83.5469 258.914 82.5625 259.008 81.25C259.195 79.8438 259.383 78.4844 259.57 77.1719C259.758 75.8594 259.945 74.6875 260.133 73.6562C260.32 72.5312 260.508 71.8281 260.695 71.5469L286.289 20.3594C286.664 19.6094 287.367 18.5781 288.398 17.2656C289.523 15.8594 290.695 14.4531 291.914 13.0469C293.227 11.5469 294.492 10.1875 295.711 8.96875C297.023 7.65625 298.102 6.625 298.945 5.875C299.602 6.0625 300.07 6.39062 300.352 6.85938C300.633 7.32812 300.82 7.89062 300.914 8.54688C301.008 9.10938 301.008 9.67188 300.914 10.2344C300.914 10.7969 300.914 11.2656 300.914 11.6406C300.914 12.1094 300.914 12.7656 300.914 13.6094C300.914 14.4531 300.867 14.875 300.773 14.875C299.836 17.4062 298.383 20.4062 296.414 23.875C294.445 27.3438 292.242 31.0469 289.805 34.9844C287.367 38.9219 284.836 43.0469 282.211 47.3594C279.68 51.5781 277.336 55.7969 275.18 60.0156C273.117 64.1406 271.383 68.125 269.977 71.9688C268.664 75.8125 268.008 79.3281 268.008 82.5156C268.008 84.2031 268.477 85.5625 269.414 86.5938C270.445 87.5312 271.523 88.375 272.648 89.125C273.773 89.875 274.805 90.625 275.742 91.375C276.773 92.125 277.289 93.1562 277.289 94.4688C277.289 95.3125 276.914 95.9688 276.164 96.4375C275.414 96.8125 274.523 97 273.492 97C269.555 97 266.133 95.9219 263.227 93.7656C260.32 91.5156 258.867 88.3281 258.867 84.2031Z"
        stroke="white" stroke-width="5"/>
    <path
        d="M324.961 69.5781C324.117 70.3281 322.992 71.2188 321.586 72.25C320.18 73.2812 318.727 73.7969 317.227 73.7969C317.227 71.9219 317.461 70.1875 317.93 68.5938C318.492 66.9062 319.102 65.2656 319.758 63.6719C320.414 61.9844 320.977 60.2969 321.445 58.6094C322.008 56.9219 322.289 55.1406 322.289 53.2656H297.68C296.93 53.2656 296.367 52.9375 295.992 52.2812C295.711 51.5312 295.57 50.9219 295.57 50.4531V50.0312C295.57 49.9375 295.617 49.7969 295.711 49.6094C297.117 49.5156 298.945 49.375 301.195 49.1875C303.539 49 305.93 48.7188 308.367 48.3438C310.805 47.9688 313.148 47.4531 315.398 46.7969C317.742 46.0469 319.711 45.1562 321.305 44.125V43.8438C321.305 43.75 321.305 43.7031 321.305 43.7031C321.398 43.6094 321.445 43.5156 321.445 43.4219C321.445 42.1094 321.211 40.9375 320.742 39.9062C320.367 38.7812 319.898 37.75 319.336 36.8125C318.773 35.7812 318.258 34.7969 317.789 33.8594C317.414 32.9219 317.227 31.9375 317.227 30.9062C318.352 30.9062 319.383 31.2344 320.32 31.8906C321.258 32.4531 322.148 33.1094 322.992 33.8594C323.836 34.6094 324.68 35.3125 325.523 35.9688C326.461 36.5312 327.492 36.8125 328.617 36.8125C329.461 36.8125 330.211 36.1094 330.867 34.7031C331.523 33.2031 332.133 31.375 332.695 29.2188C333.352 26.9688 334.008 24.5781 334.664 22.0469C335.414 19.4219 336.258 17.0312 337.195 14.875C338.227 12.625 339.352 10.7969 340.57 9.39062C341.789 7.89062 343.289 7.14062 345.07 7.14062V20.3594C346.195 18.1094 347.742 16.4219 349.711 15.2969C351.68 14.1719 353.836 13.6094 356.18 13.6094C356.18 15.5781 355.664 17.6875 354.633 19.9375C353.695 22.0938 352.523 24.25 351.117 26.4062C349.711 28.4688 348.258 30.4375 346.758 32.3125C345.258 34.0938 344.039 35.5938 343.102 36.8125C343.477 36.8125 344.227 36.8594 345.352 36.9531C346.57 36.9531 347.367 36.9531 347.742 36.9531C351.305 36.9531 354.867 36.7656 358.43 36.3906C362.086 35.9219 365.695 35.4531 369.258 34.9844C372.914 34.5156 376.57 34.0938 380.227 33.7188C383.883 33.25 387.539 33.0156 391.195 33.0156C391.195 33.9531 390.211 34.8906 388.242 35.8281C386.367 36.7656 383.883 37.7031 380.789 38.6406C377.789 39.4844 374.414 40.3281 370.664 41.1719C367.008 41.9219 363.398 42.6719 359.836 43.4219C356.273 44.1719 352.992 44.9219 349.992 45.6719C346.992 46.4219 344.695 47.125 343.102 47.7812C344.695 49.9375 346.852 51.8594 349.57 53.5469C352.289 55.1406 354.961 56.7812 357.586 58.4688C360.211 60.1562 362.461 62.0312 364.336 64.0938C366.305 66.1562 367.289 68.7344 367.289 71.8281C364.289 71.8281 361.477 71.1719 358.852 69.8594C356.227 68.5469 353.648 67 351.117 65.2188C348.68 63.3438 346.195 61.4688 343.664 59.5938C341.227 57.7188 338.602 56.2188 335.789 55.0938C335.227 56.4062 334.852 58.1875 334.664 60.4375C334.57 62.6875 334.383 64.9375 334.102 67.1875C333.914 69.3438 333.492 71.2188 332.836 72.8125C332.273 74.4062 331.148 75.2031 329.461 75.2031C328.898 75.2031 328.336 75.0156 327.773 74.6406C327.305 74.1719 326.883 73.6562 326.508 73.0938C326.133 72.4375 325.805 71.8281 325.523 71.2656C325.242 70.6094 325.055 70.0469 324.961 69.5781Z"
        stroke="white" stroke-width="5"/>
    <path
        d="M394.992 81.3906C394.992 79.6094 395.227 78.0625 395.695 76.75C396.258 75.4375 397.617 74.7812 399.773 74.7812C399.961 74.7812 400.383 74.8281 401.039 74.9219C401.789 74.9219 402.305 74.9688 402.586 75.0625C402.492 79.4688 403.195 82.7969 404.695 85.0469C406.195 87.2031 409.008 88.2812 413.133 88.2812C416.508 88.2812 419.836 87.7656 423.117 86.7344C426.398 85.7031 429.352 84.2031 431.977 82.2344C434.695 80.1719 436.852 77.6875 438.445 74.7812C440.133 71.875 440.977 68.5938 440.977 64.9375C440.977 62.6875 440.18 61.0938 438.586 60.1562C437.086 59.2188 435.398 58.4688 433.523 57.9062C431.648 57.3438 429.914 56.7344 428.32 56.0781C426.82 55.3281 426.07 54.0625 426.07 52.2812C426.07 50.125 427.383 48.0625 430.008 46.0938C432.633 44.125 435.727 42.3906 439.289 40.8906C442.852 39.2969 446.367 38.0781 449.836 37.2344C453.398 36.2969 456.117 35.8281 457.992 35.8281C457.992 38.5469 457.383 40.4688 456.164 41.5938C455.039 42.7188 453.633 43.6094 451.945 44.2656C450.258 44.9219 448.523 45.5781 446.742 46.2344C445.055 46.7969 443.648 47.9219 442.523 49.6094C444.023 50.8281 445.242 51.9531 446.18 52.9844C447.211 53.9219 448.008 54.9531 448.57 56.0781C449.133 57.2031 449.508 58.4688 449.695 59.875C449.883 61.1875 449.977 62.7812 449.977 64.6562C449.977 69.5312 448.898 73.9844 446.742 78.0156C444.68 81.9531 441.961 85.375 438.586 88.2812C435.211 91.0938 431.367 93.2969 427.055 94.8906C422.742 96.3906 418.336 97.1406 413.836 97.1406C411.398 97.1406 409.008 96.8594 406.664 96.2969C404.414 95.6406 402.398 94.6562 400.617 93.3438C398.93 92.0312 397.57 90.3906 396.539 88.4219C395.508 86.4531 394.992 84.1094 394.992 81.3906Z"
        stroke="white" stroke-width="5"/>
    <path
        d="M461.367 87.8594C461.367 86.5469 461.508 85.4219 461.789 84.4844C462.07 83.4531 462.586 82.1406 463.336 80.5469C463.992 79.6094 465.164 77.8281 466.852 75.2031C468.633 72.5781 470.461 69.8125 472.336 66.9062C474.305 64 476.133 61.2812 477.82 58.75C479.602 56.125 480.82 54.2969 481.477 53.2656C482.32 52.0469 482.977 51.3906 483.445 51.2969C483.914 51.2031 484.805 51.1562 486.117 51.1562C486.961 51.1562 487.852 51.2031 488.789 51.2969C489.82 51.3906 490.477 52.0469 490.758 53.2656C489.445 56.4531 487.664 59.5 485.414 62.4062C483.258 65.2188 481.102 68.0312 478.945 70.8438C476.883 73.6562 475.055 76.5625 473.461 79.5625C471.867 82.4688 471.07 85.6094 471.07 88.9844C471.445 88.9844 472.008 89.0312 472.758 89.125C473.602 89.2188 474.492 89.3125 475.43 89.4062C476.367 89.5 477.211 89.5938 477.961 89.6875C478.805 89.7812 479.414 89.7812 479.789 89.6875C480.352 89.5938 481.289 89.4062 482.602 89.125C484.008 88.75 485.461 88.375 486.961 88C488.555 87.625 490.055 87.25 491.461 86.875C492.867 86.5 493.852 86.2188 494.414 86.0312C494.414 86.2188 494.414 86.5469 494.414 87.0156C494.508 87.3906 494.555 87.6719 494.555 87.8594C494.555 89.7344 493.664 91.2812 491.883 92.5C490.195 93.7188 488.18 94.7031 485.836 95.4531C483.586 96.1094 481.242 96.5781 478.805 96.8594C476.461 97.0469 474.633 97.1406 473.32 97.1406C471.914 97.1406 470.461 97 468.961 96.7188C467.555 96.3438 466.289 95.7812 465.164 95.0312C464.039 94.2812 463.102 93.3438 462.352 92.2188C461.695 91 461.367 89.5469 461.367 87.8594ZM502.289 5.45312C503.508 5.45312 504.633 5.5 505.664 5.59375C506.695 5.6875 507.586 5.92188 508.336 6.29688C509.086 6.67188 509.695 7.23438 510.164 7.98438C510.633 8.73438 510.867 9.76562 510.867 11.0781C510.867 11.6406 510.867 12.25 510.867 12.9062C510.867 13.5625 510.773 14.2188 510.586 14.875C510.492 15.4375 510.258 15.9531 509.883 16.4219C509.508 16.7969 508.898 16.9844 508.055 16.9844C506.742 16.9844 505.664 16.5156 504.82 15.5781C504.07 14.6406 503.508 13.5625 503.133 12.3438C502.758 11.0312 502.523 9.71875 502.43 8.40625C502.336 7.09375 502.289 6.10938 502.289 5.45312Z"
        stroke="white" stroke-width="5"/>
</svg>